<svg xmlns="http://www.w3.org/2000/svg"><g clip-path="url(#clip0_24249_310)"><path d="M36.404 11.413a3.029 3.029 0 00-3.09.044.929.929 0 00-.13.093l-13.55 11.463H9a1 1 0 00-1 1v19a1.002 1.002 0 001 1l10.61-.005 13.543 12.44c.05.046.104.086.161.12a3.055 3.055 0 001.582.446 3.07 3.07 0 001.508-.402A3.122 3.122 0 0038 53.857V14.169a3.125 3.125 0 00-1.596-2.756zM36 53.857c0 .431-.217.81-.579 1.015a1.049 1.049 0 01-1 .026L21 42.569v-4.556a1 1 0 10-2 0v3.996l-9 .004v-17h9v4a1 1 0 102 0v-4.536l13.405-11.34c.461-.242.86-.07 1.016.018.362.205.579.584.579 1.014v39.688zM46.797 15.066a1.002 1.002 0 00-.643 1.895 17.48 17.48 0 0111.872 16.553 17.492 17.492 0 01-11.849 16.554 1 1 0 00.646 1.893 19.489 19.489 0 0013.202-18.446 19.478 19.478 0 00-13.228-18.449z"/><path d="M51.026 33.513c0-5.972-4.009-11.302-9.749-12.962a1 1 0 00-.554 1.922c4.889 1.413 8.304 5.953 8.304 11.04 0 5.087-3.415 9.627-8.304 11.04a1 1 0 00.554 1.922c5.741-1.66 9.749-6.99 9.749-12.962z"/></g><defs><clipPath id="clip0_24249_310"><path transform="translate(8 8)" d="M0 0h52.026v52.026H0z"/></clipPath></defs></svg>