<svg xmlns="http://www.w3.org/2000/svg"><path d="M21.08 7.227v-2.1a.706.706 0 00-.706-.707h-3.278a.706.706 0 00-.706.706v2.101a.706.706 0 00-.642.703v3.796a1.57 1.57 0 001.568 1.568h.713v7.52c0 .978-.796 1.774-1.774 1.774H8.538a1.776 1.776 0 01-1.774-1.774v-1.52h1.501c.39 0 .706-.316.706-.706v-2.29h.75a2.12 2.12 0 002.118-2.118V7.778c0-.952-.632-1.76-1.498-2.025v-2.42a.706.706 0 00-.706-.706h-.988V.706a.706.706 0 00-1.412 0v1.92H4.881V.707a.706.706 0 00-1.411 0v1.92h-.988a.706.706 0 00-.706.707v2.42A2.121 2.121 0 00.278 7.778v6.402a2.12 2.12 0 002.118 2.118h.75v2.29c0 .39.315.706.705.706h1.501v1.52A3.19 3.19 0 008.538 24h7.717a3.19 3.19 0 003.186-3.186v-7.52h.713a1.57 1.57 0 001.568-1.568V7.93a.706.706 0 00-.642-.703zM8.929 4.04V5.66H3.188V4.039h5.74zM1.689 14.18V7.778c0-.389.317-.706.707-.706H9.72c.39 0 .706.317.706.706v6.402c0 .39-.317.706-.706.706H2.396a.707.707 0 01-.706-.706zm2.868 2.118H7.56v1.584H4.557v-1.584zM19.668 5.832v1.392h-1.866V5.832h1.866zm.642 5.894c0 .086-.07.156-.156.156h-2.838a.157.157 0 01-.156-.156v-3.09h3.15v3.09z"/></svg>