<svg xmlns="http://www.w3.org/2000/svg"><path d="M20.337 6.4h-5.363a3.885 3.885 0 00.906-2.497A3.907 3.907 0 0011.977 0a3.907 3.907 0 00-3.903 3.903c0 .949.34 1.82.906 2.497H3.617L.28 24h23.392L20.337 6.4zm-8.36-4.994a2.5 2.5 0 012.497 2.497A2.5 2.5 0 0111.977 6.4 2.5 2.5 0 019.48 3.903a2.5 2.5 0 012.497-2.497zm-7.196 6.4h14.392l2.802 14.788H1.979L4.781 7.806z"/><path d="M12.005 12.403H10.41L8.178 14.63v-2.228H7.03v5.62h1.147v-1.921l.578-.564 1.748 2.485h1.481l-2.41-3.273 2.43-2.347z"/><path d="M14.275 16h1.515v.617a2.339 2.339 0 01-.494.26 2.065 2.065 0 01-.778.153c-.303 0-.592-.067-.86-.2a1.28 1.28 0 01-.588-.587c-.14-.275-.212-.628-.212-1.048 0-.34.06-.66.18-.948.066-.16.162-.309.283-.444.115-.128.273-.234.467-.315.198-.083.44-.125.72-.125.227 0 .435.04.619.117a.96.96 0 01.398.288c.097.127.181.31.25.543l.064.22 1.056-.29-.056-.222c-.097-.377-.243-.69-.434-.93a1.913 1.913 0 00-.804-.576 2.937 2.937 0 00-1.097-.198c-.55 0-1.045.116-1.47.344a2.33 2.33 0 00-1.006 1.072 3.434 3.434 0 00-.338 1.506c0 .542.115 1.04.342 1.481.233.452.581.802 1.036 1.04.446.234.947.353 1.488.353.402 0 .799-.073 1.18-.218a4.099 4.099 0 001.1-.638l.087-.07v-2.258l-2.648.004v1.07z"/></svg>