<svg xmlns="http://www.w3.org/2000/svg"><path d="M24 1.781H0v17.446h14.764v3.027l2.624-1.282 2.624 1.282v-3.027H24V1.78zm-6.612 14.632a2.393 2.393 0 01-2.39-2.39 2.393 2.393 0 012.39-2.391 2.393 2.393 0 012.391 2.39 2.393 2.393 0 01-2.39 2.391zm0 2.994l-1.217.595v-2.384a3.776 3.776 0 002.435 0v2.384l-1.218-.595zm5.206-1.587h-2.582v-1.057a3.786 3.786 0 001.173-2.74 3.801 3.801 0 00-3.797-3.797 3.801 3.801 0 00-3.796 3.796c0 1.077.45 2.05 1.172 2.74v1.058H1.406V3.187h21.188V17.82z"/><path d="M2.814 7.41h18.372v1.407H2.814V7.41zM4.925 4.596h14.15v1.406H4.925V4.596zM2.814 15.006h6.84v1.406h-6.84v-1.406zM2.814 12.19h6.84v1.407h-6.84v-1.406z"/></svg>