<svg xmlns="http://www.w3.org/2000/svg"><path d="M5.25 4.5A5.256 5.256 0 000 9.75c0 2.694 4.212 7.465 4.692 8.001A.754.754 0 005.25 18a.754.754 0 00.558-.249c.48-.536 4.692-5.307 4.692-8.001A5.256 5.256 0 005.25 4.5zm0 11.605C3.612 14.163 1.5 11.181 1.5 9.75A3.755 3.755 0 015.25 6 3.755 3.755 0 019 9.75c0 1.43-2.112 4.413-3.75 6.355z"/><path d="M5.25 7.5C4.01 7.5 3 8.51 3 9.75S4.01 12 5.25 12 7.5 10.99 7.5 9.75 6.49 7.5 5.25 7.5zm0 3a.75.75 0 110-1.5.75.75 0 010 1.5zM23.25 0h-6a.75.75 0 00-.75.75v7.5a.75.75 0 001.5 0V6h5.25a.75.75 0 00.75-.75V.75a.75.75 0 00-.75-.75zm-.75 4.5H18v-3h4.5v3zM21 16.5h-7.5c-.826 0-1.5-.674-1.5-1.5s.674-1.5 1.5-1.5h1.638c.31.871 1.135 1.5 2.112 1.5 1.24 0 2.25-1.01 2.25-2.25s-1.01-2.25-2.25-2.25c-.977 0-1.802.629-2.112 1.5H13.5c-1.655 0-3 1.345-3 3 0 1.654 1.345 3 3 3H21c.826 0 1.5.674 1.5 1.5S21.826 21 21 21H7.362a2.246 2.246 0 00-2.112-1.5C4.01 19.5 3 20.51 3 21.75S4.01 24 5.25 24c.976 0 1.801-.628 2.112-1.5H21c1.654 0 3-1.346 3-3s-1.346-3-3-3zM17.25 12a.75.75 0 110 1.5.75.75 0 010-1.5zm-12 10.5a.75.75 0 110-1.5.75.75 0 010 1.5z"/></svg>