<svg xmlns="http://www.w3.org/2000/svg"><path d="M17.871 15A2.868 2.868 0 0115 17.871 2.868 2.868 0 0112.129 15 2.868 2.868 0 0115 12.129 2.868 2.868 0 0117.871 15z"/><path d="M21.715 9.92a2.66 2.66 0 00-.645-.99 2.66 2.66 0 00-.99-.645c-.305-.117-.762-.258-1.6-.299-.908-.04-1.183-.052-3.48-.052-2.303 0-2.572.005-3.48.052-.838.041-1.295.182-1.6.3a2.66 2.66 0 00-.99.644 2.66 2.66 0 00-.645.99c-.117.305-.258.762-.299 1.6-.04.908-.052 1.177-.052 3.48 0 2.297.011 2.572.052 3.48.041.838.176 1.295.3 1.6.14.375.357.715.644.99.275.287.615.504.99.645.305.117.762.258 1.6.299.908.04 1.177.052 3.48.052s2.572-.005 3.48-.052c.838-.041 1.295-.176 1.6-.3a2.844 2.844 0 001.635-1.634c.117-.305.258-.762.299-1.6.04-.908.052-1.183.052-3.48 0-2.303-.005-2.572-.052-3.48-.041-.838-.182-1.295-.3-1.6zM15 19.424a4.424 4.424 0 110-8.847 4.424 4.424 0 010 8.847zm4.6-7.986a1.033 1.033 0 01-1.032-1.032 1.033 1.033 0 012.063 0c0 .569-.463 1.031-1.031 1.031z"/><path d="M15 0C6.715 0 0 6.715 0 15s6.715 15 15 15 15-6.715 15-15S23.285 0 15 0zm8.56 18.55c-.04.915-.187 1.542-.398 2.093a4.392 4.392 0 01-2.52 2.52c-.544.21-1.171.357-2.091.398-.92.04-1.213.052-3.551.052s-2.63-.011-3.55-.052c-.915-.041-1.542-.188-2.093-.399a4.193 4.193 0 01-1.523-.996c-.44-.428-.78-.95-.996-1.523-.211-.545-.358-1.172-.399-2.092-.04-.92-.052-1.213-.052-3.551s.011-2.63.052-3.55c.041-.915.188-1.542.399-2.093a4.194 4.194 0 01.996-1.523c.428-.44.95-.78 1.523-.996.551-.211 1.172-.358 2.092-.399.92-.04 1.213-.052 3.551-.052s2.63.011 3.55.052c.915.041 1.542.188 2.093.399a4.193 4.193 0 011.523.996c.44.428.78.95.996 1.523.211.551.358 1.172.399 2.092.04.92.052 1.213.052 3.551s-.011 2.63-.052 3.55z"/></svg>