<svg xmlns="http://www.w3.org/2000/svg"><path d="M34.283 6H17.717A3.32 3.32 0 0014.4 9.317v37.366A3.32 3.32 0 0017.717 50h16.566a3.32 3.32 0 003.317-3.317V9.317A3.32 3.32 0 0034.283 6zM36 46.683a1.72 1.72 0 01-1.717 1.717H17.717A1.72 1.72 0 0116 46.683V9.317c0-.947.77-1.717 1.717-1.717h16.566C35.23 7.6 36 8.37 36 9.317v37.366z"/><path d="M30.4 2h-8.8a.8.8 0 00-.8.8v4a.8.8 0 00.8.8h8.8a.8.8 0 00.8-.8v-4a.8.8 0 00-.8-.8zm-.8 4h-7.2V3.6h7.2V6zM31.875 23.97a.799.799 0 00-.675-.37h-4.8v-7.2a.8.8 0 00-1.525-.338l-5.6 12A.8.8 0 0020 29.2h4.8v7.2a.8.8 0 001.525.338l5.6-12a.8.8 0 00-.05-.768zM24.8 27.6h-3.544l3.544-7.594V27.6zm1.6 5.194V25.2h3.544L26.4 32.794z"/></svg>