<svg xmlns="http://www.w3.org/2000/svg"><g clip-path="url(#clip0_2_1030)"><path d="M15.97 1C7.717 1 1 8.276 1 17.26a12.052 12.052 0 001.658 5.917c.498.85.925 1.741 1.275 2.662.233.677.01 1.427-.555 1.866a4.117 4.117 0 00-1.546 3.237 4.159 4.159 0 001.824 3.453c.411.28.661.74.67 1.238v6.952c0 4.587 3.358 8.318 7.486 8.318s7.486-3.731 7.486-8.318a11.696 11.696 0 014.075-8.916 21.067 21.067 0 007.569-16.45C30.942 8.275 24.226 1 15.97 1zm6.322 31.406a13.354 13.354 0 00-4.658 10.18c0 3.668-2.612 6.653-5.822 6.653S5.99 46.254 5.99 42.585v-6.952a3.22 3.22 0 00-1.36-2.586 2.505 2.505 0 01-1.135-2.105 2.461 2.461 0 01.948-1.96 3.327 3.327 0 001.053-3.715 19.352 19.352 0 00-1.395-2.911 10.431 10.431 0 01-1.438-5.138c0-8.025 5.97-14.555 13.308-14.555 7.337 0 13.307 6.53 13.307 14.555a19.454 19.454 0 01-6.986 15.188z"/><path d="M15.97 5.159c-4.634 0-8.587 3.286-10.121 7.88-.011.028-.018.055-.027.084a13.307 13.307 0 00-.665 4.134c0 .998 0 4.05 1.907 5.957a.832.832 0 001.176-1.176 5.088 5.088 0 01-1.26-2.72c.135-.008.267-.019.406-.019 3.817-.001 6.921 3.492 6.921 7.783 0 .399-.019.773-.05 1.142-.414.442-.854.86-1.319 1.248a9.911 9.911 0 00-3.62 8.123.832.832 0 001.662 0 8.256 8.256 0 013.033-6.85 11.406 11.406 0 004.453-9.485c0-5.206-3.918-9.448-8.733-9.448a8.044 8.044 0 00-1.646.175 9.007 9.007 0 017.884-5.165c5.044 0 9.148 4.68 9.148 10.433a15.163 15.163 0 01-5.357 11.786c-.115.099-.242.206-.38.321-1.655 1.376-5.098 4.242-5.901 11.469a.832.832 0 00.735.914c.03.005.06.008.091.009.424 0 .78-.32.826-.74.73-6.563 3.71-9.042 5.312-10.374.147-.123.282-.236.404-.34a16.786 16.786 0 005.934-13.045c0-6.67-4.85-12.096-10.812-12.096zm-6.237 8.317c3.898 0 7.07 3.493 7.07 7.784a10.624 10.624 0 01-.915 4.575c-.559-4.625-4.153-8.2-8.5-8.2-.193 0-.377.013-.563.027v-.407c0-1.112.16-2.219.473-3.286a6.333 6.333 0 012.435-.493zM42.585 20.13a9.8 9.8 0 013.087-6.904.832.832 0 10-1.183-1.164 11.424 11.424 0 00-3.567 8.067 11.424 11.424 0 003.567 8.068.832.832 0 101.183-1.165 9.8 9.8 0 01-3.087-6.903z"/><path d="M48.129 15.35a.832.832 0 00-1.175.068 6.86 6.86 0 000 9.423.832.832 0 101.243-1.106 5.2 5.2 0 010-7.211.832.832 0 00-.068-1.175z"/><path d="M50.689 17.91a.832.832 0 00-1.175-.062 2.904 2.904 0 000 4.563.832.832 0 101.113-1.236 1.485 1.485 0 01-.556-1.046c.032-.41.234-.789.556-1.045a.832.832 0 00.062-1.174zM38.427 20.13c0-3.66 1.64-7.197 4.74-10.217a.833.833 0 10-1.164-1.191c-3.426 3.34-5.24 7.284-5.24 11.407s1.814 8.068 5.24 11.408a.833.833 0 101.165-1.191c-3.102-3.02-4.741-6.557-4.741-10.217z"/><path d="M34.268 20.13c0-4.57 1.932-8.971 5.587-12.726a.833.833 0 00-1.193-1.164c-3.962 4.075-6.057 8.878-6.057 13.89 0 5.01 2.095 9.814 6.057 13.889a.833.833 0 101.193-1.165C36.2 29.1 34.268 24.7 34.268 20.13z"/></g><defs><clipPath id="clip0_2_1030"><path transform="translate(1 1)" d="M0 0h50v49.903H0z"/></clipPath></defs></svg>