<svg xmlns="http://www.w3.org/2000/svg"><path d="M38.8 12.4h-2.4v-8C36.4 3.04 35.36 2 34 2c-1.36 0-2.4 1.04-2.4 2.4v8H20.4v-8C20.4 3.04 19.36 2 18 2c-1.36 0-2.4 1.04-2.4 2.4v8h-2.4c-.48 0-.8.32-.8.8v6.08c0 4 1.52 7.84 4.24 10.8 2.4 2.72 3.76 6.24 3.76 9.84V42c0 2.24 1.76 4 4 4h.8v3.2c0 .48.32.8.8.8.48 0 .8-.32.8-.8V46h.8c2.24 0 4-1.76 4-4v-2c0-3.68 1.28-7.12 3.76-9.84 2.72-2.96 4.24-6.88 4.24-10.88V13.2c0-.48-.32-.8-.8-.8zm-5.6-8c0-.48.32-.8.8-.8.48 0 .8.32.8.8v8h-1.6v-8zm-16 0c0-.4.32-.8.8-.8.48 0 .8.32.8.8v8h-1.6v-8zM38 19.2c0 3.68-1.28 7.12-3.76 9.84A16.154 16.154 0 0030 39.92V42c0 1.36-1.04 2.4-2.4 2.4h-3.2c-1.36 0-2.4-1.04-2.4-2.4v-2c0-4-1.52-7.92-4.24-10.88-2.4-2.72-3.76-6.24-3.76-9.84V14H38v5.2z"/><path d="M29.2 22.8h-4.48l4.24-4.24c.32-.32.32-.8 0-1.12a.773.773 0 00-1.12 0l-5.6 5.6c-.24.24-.32.56-.16.88.08.32.4.48.72.48h4.48l-4.24 4.24c-.32.32-.32.8 0 1.12.16.16.32.24.56.24.24 0 .4-.08.56-.24l5.6-5.6c.24-.24.32-.56.16-.88-.08-.32-.4-.48-.72-.48z"/></svg>