<svg xmlns="http://www.w3.org/2000/svg"><path d="M21 10.111c-6.004 0-10.889 4.884-10.889 10.889 0 6.004 4.885 10.889 10.889 10.889S31.889 27.004 31.889 21c0-6.005-4.885-10.889-10.889-10.889zm0 20.222c-5.147 0-9.333-4.186-9.333-9.333s4.186-9.333 9.333-9.333 9.333 4.186 9.333 9.333c0 5.146-4.186 9.333-9.333 9.333z"/><path d="M39.838 16.333h-1.57c-.4-1.487-.99-2.91-1.758-4.244l1.11-1.11a2.15 2.15 0 00.633-1.528c0-.578-.225-1.121-.633-1.53L34.078 4.38c-.816-.816-2.24-.818-3.059 0L29.91 5.489a17.776 17.776 0 00-4.243-1.757v-1.57C25.667.97 24.697 0 23.504 0h-5.008c-1.193 0-2.163.97-2.163 2.162v1.57c-1.486.4-2.909.99-4.244 1.758l-1.11-1.11c-.817-.818-2.241-.816-3.058 0L4.38 7.922a2.15 2.15 0 00-.633 1.53c0 .577.224 1.12.633 1.529l1.109 1.109a17.705 17.705 0 00-1.757 4.243h-1.57C.97 16.333 0 17.303 0 18.496v5.008c0 1.193.97 2.163 2.162 2.163h1.57c.4 1.486.99 2.909 1.758 4.244l-1.11 1.11a2.15 2.15 0 00-.633 1.528c0 .578.225 1.121.633 1.53l3.542 3.541c.816.818 2.241.819 3.059 0l1.109-1.109a17.798 17.798 0 004.244 1.758v1.57c0 1.192.97 2.162 2.162 2.162h5.008c1.193 0 2.163-.97 2.163-2.162v-1.57c1.486-.4 2.909-.99 4.244-1.758l1.11 1.11c.817.818 2.24.816 3.058 0l3.541-3.542a2.15 2.15 0 00.633-1.53 2.15 2.15 0 00-.633-1.529l-1.109-1.109a17.798 17.798 0 001.758-4.244h1.57c1.192 0 2.162-.97 2.162-2.163v-5.008c-.001-1.193-.97-2.163-2.163-2.163zm.606 7.171a.607.607 0 01-.606.607h-2.794l-.14.601a16.245 16.245 0 01-2.032 4.909l-.327.524 1.975 1.975a.607.607 0 010 .859l-3.541 3.54a.607.607 0 01-.86 0l-1.974-1.974-.524.327a16.208 16.208 0 01-4.909 2.032l-.6.14v2.794a.607.607 0 01-.608.606h-5.008a.607.607 0 01-.607-.606v-2.794l-.601-.14a16.245 16.245 0 01-4.909-2.032l-.524-.327L9.88 36.52a.607.607 0 01-.859 0l-3.54-3.541a.607.607 0 010-.86l1.974-1.974-.327-.524a16.208 16.208 0 01-2.032-4.909l-.14-.6H2.162a.607.607 0 01-.606-.608v-5.008c0-.335.272-.607.606-.607h2.794l.14-.601a16.228 16.228 0 012.032-4.909l.327-.524L5.48 9.88a.607.607 0 010-.859l3.541-3.54a.607.607 0 01.86 0l1.974 1.974.524-.327a16.208 16.208 0 014.909-2.032l.6-.14V2.162c0-.334.273-.606.608-.606h5.008c.335 0 .607.272.607.606v2.794l.601.14a16.245 16.245 0 014.909 2.032l.524.327L32.12 5.48a.607.607 0 01.859 0l3.54 3.541a.607.607 0 010 .86l-1.974 1.974.327.524a16.19 16.19 0 012.032 4.909l.14.6h2.794c.334 0 .606.273.606.608v5.008z"/><path d="M21 13.222c-4.289 0-7.778 3.49-7.778 7.778 0 4.289 3.49 7.778 7.778 7.778 4.289 0 7.778-3.49 7.778-7.778 0-4.289-3.49-7.778-7.778-7.778zm0 14A6.23 6.23 0 0114.778 21 6.23 6.23 0 0121 14.778 6.23 6.23 0 0127.222 21 6.23 6.23 0 0121 27.222z"/></svg>