<svg xmlns="http://www.w3.org/2000/svg"><path d="M29 0C18.913 0 0 7.684 0 29.456S29 73 29 73s29-21.772 29-43.544S39.087 0 29 0z"/><g clip-path="url(#clip0_2_1181)"><path d="M29 33.81c2.518 0 4.579-2.074 4.579-4.61 0-2.536-2.06-4.61-4.579-4.61-2.518 0-4.579 2.074-4.579 4.61 0 2.536 2.06 4.61 4.579 4.61zm0-19.979c-1.526 0-3.129.231-4.579.692v8.53c3.358-2.536 8.166-1.845 10.684 1.536 2.519 3.382 1.832 8.223-1.526 10.758-3.358 2.536-8.166 1.844-10.684-1.537-.992-1.306-1.527-2.92-1.527-4.61V15.906c-7.326 4.227-9.768 13.601-5.57 20.978 4.197 7.377 13.507 9.836 20.834 5.61 7.326-4.227 9.768-13.601 5.57-20.978-2.67-4.764-7.707-7.684-13.202-7.684z"/></g><defs><clipPath id="clip0_2_1181"><path transform="translate(13.737 13.832)" d="M0 0h30.526v30.737H0z"/></clipPath></defs></svg>